<mxfile host="65bd71144e">
    <diagram id="HnnXNi5h_ew47hzCGdPn" name="Page-1">
        <mxGraphModel dx="12336" dy="3732" grid="1" gridSize="10" guides="1" tooltips="1" connect="1" arrows="1" fold="1" page="0" pageScale="1" pageWidth="850" pageHeight="1100" math="0" shadow="0">
            <root>
                <mxCell id="0"/>
                <mxCell id="1" parent="0"/>
                <mxCell id="4" value="" style="whiteSpace=wrap;html=1;" vertex="1" parent="1">
                    <mxGeometry x="-3900" y="-970" width="880" height="220" as="geometry"/>
                </mxCell>
                <mxCell id="5" value="Utilisateur" style="text;html=1;align=center;verticalAlign=middle;resizable=0;points=[];autosize=1;strokeColor=none;fillColor=none;fontSize=105;" vertex="1" parent="1">
                    <mxGeometry x="-3705" y="-930" width="490" height="140" as="geometry"/>
                </mxCell>
                <mxCell id="9" value="&lt;span style=&quot;&quot;&gt;&amp;nbsp; &amp;nbsp;#id: int&lt;/span&gt;&lt;br style=&quot;border-color: var(--border-color);&quot;&gt;&amp;nbsp; &amp;nbsp;#nom: string&lt;br&gt;&amp;nbsp; &amp;nbsp;#prenom: string&lt;br&gt;&amp;nbsp; &amp;nbsp;#email: string&lt;br&gt;&amp;nbsp; &amp;nbsp;#numeroTele: int&amp;nbsp;&lt;br style=&quot;border-color: var(--border-color);&quot;&gt;&amp;nbsp; &amp;nbsp;#pay: string&lt;br&gt;&amp;nbsp; &amp;nbsp;#ville: string&lt;br&gt;&amp;nbsp; &amp;nbsp;#motDePass: string&lt;br&gt;&amp;nbsp; &amp;nbsp;#secteur: string&lt;br&gt;&amp;nbsp; &amp;nbsp;#poste: string" style="whiteSpace=wrap;html=1;fontSize=83;align=left;" vertex="1" parent="1">
                    <mxGeometry x="-3900" y="-750" width="880" height="1200" as="geometry"/>
                </mxCell>
                <mxCell id="28" style="edgeStyle=none;jumpSize=16;html=1;exitX=0.586;exitY=1.001;exitDx=0;exitDy=0;strokeWidth=6;fontSize=83;startArrow=block;startFill=0;endArrow=none;endFill=0;endSize=4;startSize=50;exitPerimeter=0;" edge="1" parent="1" source="11">
                    <mxGeometry relative="1" as="geometry">
                        <mxPoint x="-3390" y="1620" as="targetPoint"/>
                        <Array as="points">
                            <mxPoint x="-3390" y="1360"/>
                            <mxPoint x="-3390" y="1620"/>
                        </Array>
                    </mxGeometry>
                </mxCell>
                <mxCell id="11" value="&amp;nbsp; &amp;nbsp;+seConnecter(): void&lt;br&gt;&amp;nbsp; &amp;nbsp;+sInscrire(): void&lt;br&gt;&amp;nbsp; &amp;nbsp;+updateProfile(): void" style="whiteSpace=wrap;html=1;labelBackgroundColor=#FFFFFF;fontSize=83;align=left;" vertex="1" parent="1">
                    <mxGeometry x="-3900" y="450" width="880" height="600" as="geometry"/>
                </mxCell>
                <mxCell id="26" style="edgeStyle=none;html=1;fontSize=83;endArrow=none;endFill=0;startArrow=none;startFill=0;strokeWidth=6;jumpSize=16;endSize=6;startSize=50;entryX=0.5;entryY=0;entryDx=0;entryDy=0;" edge="1" parent="1" target="55">
                    <mxGeometry relative="1" as="geometry">
                        <mxPoint x="-3390" y="1270" as="sourcePoint"/>
                        <mxPoint x="770" y="960" as="targetPoint"/>
                        <Array as="points">
                            <mxPoint x="-2470" y="1270"/>
                            <mxPoint x="-890" y="1270"/>
                            <mxPoint x="-550" y="1270"/>
                        </Array>
                    </mxGeometry>
                </mxCell>
                <mxCell id="43" style="edgeStyle=none;jumpSize=16;html=1;entryX=0;entryY=0.25;entryDx=0;entryDy=0;strokeWidth=6;fontSize=105;startArrow=diamond;startFill=1;endArrow=none;endFill=0;targetPerimeterSpacing=0;endSize=45;startSize=74;" edge="1" parent="1" source="39" target="50">
                    <mxGeometry relative="1" as="geometry">
                        <mxPoint x="-5250" y="3335" as="targetPoint"/>
                        <Array as="points">
                            <mxPoint x="-6270" y="4188"/>
                        </Array>
                    </mxGeometry>
                </mxCell>
                <mxCell id="39" value="categorie" style="whiteSpace=wrap;html=1;labelBackgroundColor=#FFFFFF;strokeWidth=1;fontSize=105;" vertex="1" parent="1">
                    <mxGeometry x="-7010" y="4800" width="1480" height="230" as="geometry"/>
                </mxCell>
                <mxCell id="40" value="&amp;nbsp; &amp;nbsp;-id: int&lt;br&gt;&amp;nbsp; &amp;nbsp;-nom: string" style="whiteSpace=wrap;html=1;labelBackgroundColor=#FFFFFF;strokeWidth=1;fontSize=105;align=left;" vertex="1" parent="1">
                    <mxGeometry x="-7010" y="5030" width="1480" height="370" as="geometry"/>
                </mxCell>
                <mxCell id="41" value="&amp;nbsp; &amp;nbsp;+ajouterCategorie(): void&lt;br&gt;&amp;nbsp; &amp;nbsp;+modifierCategorie(): void&lt;br&gt;&amp;nbsp; &amp;nbsp;+supprimerCategorie(): void" style="whiteSpace=wrap;html=1;labelBackgroundColor=#FFFFFF;strokeWidth=1;fontSize=105;align=left;" vertex="1" parent="1">
                    <mxGeometry x="-7010" y="5400" width="1480" height="720" as="geometry"/>
                </mxCell>
                <mxCell id="44" style="edgeStyle=none;jumpSize=16;html=1;strokeWidth=6;fontSize=105;startArrow=none;startFill=0;endArrow=none;endFill=0;targetPerimeterSpacing=0;endSize=45;startSize=0;" edge="1" parent="1">
                    <mxGeometry relative="1" as="geometry">
                        <mxPoint x="-5680" y="1610" as="sourcePoint"/>
                        <mxPoint x="-3390" y="1270" as="targetPoint"/>
                        <Array as="points">
                            <mxPoint x="-5680" y="1270"/>
                        </Array>
                    </mxGeometry>
                </mxCell>
                <mxCell id="45" value="" style="whiteSpace=wrap;html=1;" vertex="1" parent="1">
                    <mxGeometry x="-6770" y="1600" width="1280" height="220" as="geometry"/>
                </mxCell>
                <mxCell id="46" value="candidat" style="text;html=1;align=center;verticalAlign=middle;resizable=0;points=[];autosize=1;strokeColor=none;fillColor=none;fontSize=105;" vertex="1" parent="1">
                    <mxGeometry x="-6340" y="1640" width="420" height="140" as="geometry"/>
                </mxCell>
                <mxCell id="47" value="" style="whiteSpace=wrap;html=1;fontSize=83;align=left;" vertex="1" parent="1">
                    <mxGeometry x="-6770" y="1820" width="1280" height="150" as="geometry"/>
                </mxCell>
                <mxCell id="66" style="edgeStyle=none;jumpSize=16;html=1;entryX=0;entryY=0.5;entryDx=0;entryDy=0;strokeWidth=6;fontSize=74;startArrow=none;startFill=0;endArrow=none;endFill=0;startSize=74;endSize=6;targetPerimeterSpacing=0;" edge="1" parent="1" source="48" target="49">
                    <mxGeometry relative="1" as="geometry">
                        <Array as="points">
                            <mxPoint x="-6130" y="3810"/>
                        </Array>
                    </mxGeometry>
                </mxCell>
                <mxCell id="48" value="&amp;nbsp; &amp;nbsp;+postulerOffre():void&lt;br&gt;&amp;nbsp; &amp;nbsp;+consultationHistorique:array&lt;br&gt;&amp;nbsp; &amp;nbsp;+rechercherOffres():array" style="whiteSpace=wrap;html=1;labelBackgroundColor=#FFFFFF;fontSize=83;align=left;" vertex="1" parent="1">
                    <mxGeometry x="-6770" y="1970" width="1280" height="360" as="geometry"/>
                </mxCell>
                <mxCell id="49" value="&lt;font style=&quot;font-size: 105px;&quot;&gt;OffreEmploi&lt;/font&gt;" style="whiteSpace=wrap;html=1;labelBackgroundColor=#FFFFFF;fontSize=83;" vertex="1" parent="1">
                    <mxGeometry x="-4650" y="3680" width="1380" height="260" as="geometry"/>
                </mxCell>
                <mxCell id="50" value="&amp;nbsp; &amp;nbsp;-id: int&lt;br style=&quot;border-color: var(--border-color);&quot;&gt;&amp;nbsp; &amp;nbsp;-poste: string&lt;br&gt;&amp;nbsp; &amp;nbsp;-description: string&amp;nbsp;&lt;br&gt;&amp;nbsp; &amp;nbsp;-salaire: float&lt;br&gt;&amp;nbsp; &amp;nbsp;-lieu: string&lt;br&gt;&amp;nbsp; &amp;nbsp;-datePublication:DateTime&lt;br&gt;&amp;nbsp; &amp;nbsp;-estArchive: boolean" style="whiteSpace=wrap;html=1;labelBackgroundColor=#FFFFFF;fontSize=105;align=left;" vertex="1" parent="1">
                    <mxGeometry x="-4650" y="3940" width="1380" height="990" as="geometry"/>
                </mxCell>
                <mxCell id="51" value="" style="whiteSpace=wrap;html=1;" vertex="1" parent="1">
                    <mxGeometry x="-4080" y="1600" width="1560" height="220" as="geometry"/>
                </mxCell>
                <mxCell id="52" value="recruteur" style="text;html=1;align=center;verticalAlign=middle;resizable=0;points=[];autosize=1;strokeColor=none;fillColor=none;fontSize=105;" vertex="1" parent="1">
                    <mxGeometry x="-3520" y="1640" width="440" height="140" as="geometry"/>
                </mxCell>
                <mxCell id="53" value="&amp;nbsp; &amp;nbsp; -nomEnteprise: string" style="whiteSpace=wrap;html=1;fontSize=83;align=left;" vertex="1" parent="1">
                    <mxGeometry x="-4080" y="1820" width="1560" height="250" as="geometry"/>
                </mxCell>
                <mxCell id="62" style="edgeStyle=none;jumpSize=16;html=1;exitX=0.25;exitY=1;exitDx=0;exitDy=0;strokeWidth=6;fontSize=105;startArrow=diamond;startFill=1;endArrow=none;endFill=0;startSize=74;endSize=6;targetPerimeterSpacing=0;" edge="1" parent="1" source="54">
                    <mxGeometry relative="1" as="geometry">
                        <mxPoint x="-3690" y="3660" as="targetPoint"/>
                    </mxGeometry>
                </mxCell>
                <mxCell id="54" value="&amp;nbsp; &amp;nbsp;+creerOffre(): void&lt;br&gt;&amp;nbsp; &amp;nbsp;+modifierOffre():&amp;nbsp;void&lt;br&gt;&amp;nbsp; &amp;nbsp;+supprimerOffre():void&lt;br&gt;&amp;nbsp; &amp;nbsp;+consulterHistoriqueOffre():array&lt;br&gt;&amp;nbsp; &amp;nbsp;+viewCandidatPostuler():array" style="whiteSpace=wrap;html=1;labelBackgroundColor=#FFFFFF;fontSize=83;align=left;" vertex="1" parent="1">
                    <mxGeometry x="-4080" y="2070" width="1560" height="740" as="geometry"/>
                </mxCell>
                <mxCell id="55" value="" style="whiteSpace=wrap;html=1;" vertex="1" parent="1">
                    <mxGeometry x="-1330" y="1600" width="1560" height="220" as="geometry"/>
                </mxCell>
                <mxCell id="56" value="administrateur" style="text;html=1;align=center;verticalAlign=middle;resizable=0;points=[];autosize=1;strokeColor=none;fillColor=none;fontSize=105;" vertex="1" parent="1">
                    <mxGeometry x="-895" y="1640" width="690" height="140" as="geometry"/>
                </mxCell>
                <mxCell id="57" value="&amp;nbsp; &amp;nbsp; +ajouterCategorie():void&lt;br&gt;&amp;nbsp; &amp;nbsp; +supprimerCategories(): void&lt;br&gt;&amp;nbsp; &amp;nbsp; +modifierCategorie():&amp;nbsp; void&lt;br&gt;&amp;nbsp; &amp;nbsp; +ajouterTag(): void&lt;br&gt;&amp;nbsp; &amp;nbsp; +modifierTag(): void&lt;br&gt;&amp;nbsp; &amp;nbsp; +supprimerTag(): void&lt;br&gt;&amp;nbsp; &amp;nbsp; +archiverOffres(): void&lt;br&gt;&amp;nbsp; &amp;nbsp; +voirStatistiques(): array" style="whiteSpace=wrap;html=1;labelBackgroundColor=#FFFFFF;fontSize=83;align=left;" vertex="1" parent="1">
                    <mxGeometry x="-1330" y="1820" width="1550" height="860" as="geometry"/>
                </mxCell>
                <mxCell id="61" style="edgeStyle=none;jumpSize=16;html=1;exitX=0.5;exitY=0;exitDx=0;exitDy=0;entryX=1;entryY=0.5;entryDx=0;entryDy=0;strokeWidth=6;fontSize=105;startArrow=diamond;startFill=0;endArrow=none;endFill=0;startSize=74;endSize=6;targetPerimeterSpacing=0;" edge="1" parent="1" source="58" target="50">
                    <mxGeometry relative="1" as="geometry">
                        <Array as="points">
                            <mxPoint x="-1540" y="4435"/>
                        </Array>
                    </mxGeometry>
                </mxCell>
                <mxCell id="58" value="tag" style="whiteSpace=wrap;html=1;labelBackgroundColor=#FFFFFF;strokeWidth=1;fontSize=105;" vertex="1" parent="1">
                    <mxGeometry x="-2280" y="5020" width="1480" height="230" as="geometry"/>
                </mxCell>
                <mxCell id="59" value="&amp;nbsp; &amp;nbsp;-id: int&lt;br&gt;&amp;nbsp; &amp;nbsp;-nom: string" style="whiteSpace=wrap;html=1;labelBackgroundColor=#FFFFFF;strokeWidth=1;fontSize=105;align=left;" vertex="1" parent="1">
                    <mxGeometry x="-2280" y="5250" width="1480" height="370" as="geometry"/>
                </mxCell>
                <mxCell id="60" value="&amp;nbsp; &amp;nbsp;+ajouterTag(): void&lt;br&gt;&amp;nbsp; &amp;nbsp;+modifierTag(): void&lt;br&gt;&amp;nbsp; &amp;nbsp;+supprimerTag(): void" style="whiteSpace=wrap;html=1;labelBackgroundColor=#FFFFFF;strokeWidth=1;fontSize=105;align=left;" vertex="1" parent="1">
                    <mxGeometry x="-2280" y="5620" width="1480" height="720" as="geometry"/>
                </mxCell>
                <mxCell id="63" value="&lt;font style=&quot;font-size: 74px;&quot;&gt;1&lt;/font&gt;" style="text;html=1;align=center;verticalAlign=middle;resizable=0;points=[];autosize=1;strokeColor=none;fillColor=none;fontSize=105;" vertex="1" parent="1">
                    <mxGeometry x="-3530" y="2820" width="60" height="140" as="geometry"/>
                </mxCell>
                <mxCell id="64" value="&lt;font style=&quot;font-size: 74px;&quot;&gt;creation&lt;/font&gt;" style="text;html=1;align=center;verticalAlign=middle;resizable=0;points=[];autosize=1;strokeColor=none;fillColor=none;fontSize=105;" vertex="1" parent="1">
                    <mxGeometry x="-3600" y="3160" width="290" height="140" as="geometry"/>
                </mxCell>
                <mxCell id="65" value="0..*" style="text;html=1;align=center;verticalAlign=middle;resizable=0;points=[];autosize=1;strokeColor=none;fillColor=none;fontSize=74;" vertex="1" parent="1">
                    <mxGeometry x="-3675" y="3560" width="130" height="100" as="geometry"/>
                </mxCell>
                <mxCell id="67" value="0..*" style="text;html=1;align=center;verticalAlign=middle;resizable=0;points=[];autosize=1;strokeColor=none;fillColor=none;fontSize=74;" vertex="1" parent="1">
                    <mxGeometry x="-6065" y="2450" width="130" height="100" as="geometry"/>
                </mxCell>
                <mxCell id="68" value="postulation" style="text;html=1;align=center;verticalAlign=middle;resizable=0;points=[];autosize=1;strokeColor=none;fillColor=none;fontSize=74;" vertex="1" parent="1">
                    <mxGeometry x="-6070" y="3060" width="380" height="100" as="geometry"/>
                </mxCell>
                <mxCell id="69" value="0..*" style="text;html=1;align=center;verticalAlign=middle;resizable=0;points=[];autosize=1;strokeColor=none;fillColor=none;fontSize=74;" vertex="1" parent="1">
                    <mxGeometry x="-4875" y="3650" width="130" height="100" as="geometry"/>
                </mxCell>
                <mxCell id="73" value="1" style="text;html=1;align=center;verticalAlign=middle;resizable=0;points=[];autosize=1;strokeColor=none;fillColor=none;fontSize=74;" vertex="1" parent="1">
                    <mxGeometry x="-6190" y="4690" width="60" height="100" as="geometry"/>
                </mxCell>
                <mxCell id="74" value="0..*" style="text;html=1;align=center;verticalAlign=middle;resizable=0;points=[];autosize=1;strokeColor=none;fillColor=none;fontSize=74;" vertex="1" parent="1">
                    <mxGeometry x="-4845" y="4030" width="130" height="100" as="geometry"/>
                </mxCell>
                <mxCell id="75" value="0..*" style="text;html=1;align=center;verticalAlign=middle;resizable=0;points=[];autosize=1;strokeColor=none;fillColor=none;fontSize=74;" vertex="1" parent="1">
                    <mxGeometry x="-1445" y="4890" width="130" height="100" as="geometry"/>
                </mxCell>
                <mxCell id="76" value="0..*" style="text;html=1;align=center;verticalAlign=middle;resizable=0;points=[];autosize=1;strokeColor=none;fillColor=none;fontSize=74;" vertex="1" parent="1">
                    <mxGeometry x="-3185" y="4200" width="130" height="100" as="geometry"/>
                </mxCell>
            </root>
        </mxGraphModel>
    </diagram>
</mxfile>